<svg width="31" height="31" viewBox="0 0 31 31" fill="none" xmlns="http://www.w3.org/2000/svg">
<g id="Group 8">
<circle id="Oval" cx="15.5" cy="15.5" r="15.5" fill="#FF8B77"/>
<path id="Vector" d="M10.7644 9.85804C11.0048 9.85804 11.2353 9.95352 11.4052 10.1235L15.2501 13.9684L19.095 10.1235C19.265 9.95352 19.4955 9.85804 19.7358 9.85804C19.9762 9.85804 20.2067 9.95352 20.3766 10.1235C20.5466 10.2934 20.6421 10.5239 20.6421 10.7643C20.6421 11.0046 20.5466 11.2352 20.3766 11.4051L16.5317 15.25L20.3766 19.0949C20.5466 19.2648 20.6421 19.4954 20.6421 19.7357C20.6421 19.9761 20.5466 20.2066 20.3766 20.3765C20.2067 20.5465 19.9762 20.642 19.7358 20.642C19.4955 20.642 19.265 20.5465 19.095 20.3765L15.2501 16.5316L11.4052 20.3765C11.2353 20.5465 11.0048 20.642 10.7644 20.642C10.5241 20.642 10.2935 20.5465 10.1236 20.3765C9.95364 20.2066 9.85816 19.9761 9.85816 19.7357C9.85816 19.4954 9.95364 19.2648 10.1236 19.0949L13.9685 15.25L10.1236 11.4051C9.95364 11.2352 9.85816 11.0046 9.85816 10.7643C9.85816 10.5239 9.95364 10.2934 10.1236 10.1235C10.2935 9.95352 10.5241 9.85804 10.7644 9.85804Z" fill="white"/>
</g>
</svg>
