<svg width="41" height="41" viewBox="0 0 41 41" fill="none" xmlns="http://www.w3.org/2000/svg">
<g id="Group 4">
<rect id="Rectangle" width="41" height="41" rx="20.5" fill="url(#paint0_linear_0_74653)"/>
<path id="Fill 1" fill-rule="evenodd" clip-rule="evenodd" d="M14.6072 26.962L16.7504 28.6368L14.4283 29.4012L14.6072 26.962ZM23.2444 14.9886L26.2712 17.3534L17.9759 27.9702L14.95 25.6053L23.2444 14.9886ZM24.8466 12.9378C25.0645 12.6592 25.4672 12.6097 25.7462 12.8274L27.7635 14.4036C28.501 14.9843 27.3545 15.8574 27.059 16.3449L24.0323 13.9801L24.8466 12.9378ZM27.6671 17.6466C30.4088 14.5366 29.4718 14.0281 26.5343 11.8191L26.5343 11.8188C26.1325 11.5058 25.6231 11.3648 25.1174 11.4269C24.612 11.4889 24.1518 11.749 23.8377 12.1499C23.8377 12.1499 15.7847 22.4888 13.8393 25.1777C13.5658 25.5577 13.4031 26.0057 13.3694 26.4725L13.0811 30.2599L13.0811 30.2597C13.0674 30.4723 13.1595 30.6781 13.3274 30.8095C13.4951 30.9408 13.7171 30.9808 13.9201 30.9162L17.5772 29.7124C18.0491 29.5584 18.4652 29.2695 18.7745 28.8816C20.687 26.4832 27.667 17.6467 27.667 17.6467L27.6671 17.6466Z" fill="white"/>
</g>
<defs>
<linearGradient id="paint0_linear_0_74653" x1="-16.9372" y1="18.7186" x2="20.5" y2="59.7186" gradientUnits="userSpaceOnUse">
<stop stop-color="#5E6BFF"/>
<stop offset="1" stop-color="#212FCC"/>
</linearGradient>
</defs>
</svg>
