<svg width="29" height="20" viewBox="0 0 29 20" fill="none" xmlns="http://www.w3.org/2000/svg">
<g id="Icon">
<path id="Icon Shape" fill-rule="evenodd" clip-rule="evenodd" d="M2.07143 0H12.4286C13.5726 0 14.5 0.89543 14.5 2C14.5 3.10457 13.5726 4 12.4286 4H2.07143C0.92741 4 0 3.10457 0 2C0 0.89543 0.92741 0 2.07143 0ZM16.5714 16H26.9286C28.0726 16 29 16.8954 29 18C29 19.1046 28.0726 20 26.9286 20H16.5714C15.4274 20 14.5 19.1046 14.5 18C14.5 16.8954 15.4274 16 16.5714 16ZM26.9286 8H2.07143C0.92741 8 0 8.89543 0 10C0 11.1046 0.92741 12 2.07143 12H26.9286C28.0726 12 29 11.1046 29 10C29 8.89543 28.0726 8 26.9286 8Z" fill="#2736E0"/>
</g>
</svg>
