<svg width="23" height="23" viewBox="0 0 23 23" fill="none" xmlns="http://www.w3.org/2000/svg">
<g id="Group 2">
<g id="Group 3">
<mask id="mask0_0_74645" style="mask-type:alpha" maskUnits="userSpaceOnUse" x="0" y="0" width="22" height="23">
<path id="Clip 2" fill-rule="evenodd" clip-rule="evenodd" d="M0 0H22V23H0V0Z" fill="white"/>
</mask>
<g mask="url(#mask0_0_74645)">
<path id="Fill 1" fill-rule="evenodd" clip-rule="evenodd" d="M20.3073 16.3085C20.3073 15.6148 19.7397 15.0548 19.0341 15.0548C18.335 15.0548 17.769 14.4909 17.769 13.8031V8.36348C17.769 4.66798 14.7388 1.67279 10.9997 1.67279C7.26058 1.67279 4.23041 4.66739 4.23041 8.36348V13.8031C4.23041 14.4938 3.66145 15.0548 2.96528 15.0548C2.262 15.0548 1.69213 15.6168 1.69213 16.3085V16.7273H20.3065C20.3068 16.7273 20.3071 16.3085 20.3071 16.3085H20.3073ZM21.9997 16.3085V16.7282C21.9997 17.6543 21.2419 18.4 20.3067 18.4H1.69304C0.757826 18.4 0 17.652 0 16.7282V16.3085C0 14.8354 1.10338 13.6164 2.53858 13.4119V8.36355C2.53858 3.74336 6.32635 0 11 0C15.6737 0 19.4614 3.74396 19.4614 8.36355V13.4119C20.8984 13.6158 22 14.834 22 16.3085H21.9997ZM7.19221 19.2365H8.88434C8.88434 20.3911 9.83134 21.3274 10.9997 21.3274C12.1681 21.3274 13.1151 20.3911 13.1151 19.2365H14.8072C14.8072 21.3149 13.1027 23 10.9997 23C8.89673 23 7.19221 21.3149 7.19221 19.2365Z" fill="black"/>
</g>
</g>
<circle id="Oval" cx="19" cy="5" r="4" fill="#E13030"/>
</g>
</svg>
