<svg width="44" height="44" viewBox="0 0 44 44" fill="none" xmlns="http://www.w3.org/2000/svg">
<g id="Group 11">
<rect id="Rectangle 34" width="44" height="44" rx="14" fill="#64CBEB"/>
<g id="Group 5">
<path id="Fill 1" fill-rule="evenodd" clip-rule="evenodd" d="M18.3684 26C18.2632 26 18.2105 26 18.1053 25.9474C17.7895 25.8947 17.5263 25.6842 17.3684 25.3684L15 21L17 19.9474L18.7895 23.2105L27.7368 17L29 18.8421L19 25.7365C18.8421 25.9471 18.5789 25.9997 18.3684 25.9997V26Z" fill="white"/>
<path id="Fill 3" fill-rule="evenodd" clip-rule="evenodd" d="M22.0003 9.47662C20.2601 9.47662 18.52 9.9348 16.9845 10.8002L11.5593 13.9056C10.9452 14.262 10.5357 14.9747 10.5357 15.6874V16.2474C10.5357 23.3233 14.3231 29.8907 20.4649 33.4037L22.0003 34.2691L23.5357 33.4037C29.6775 29.891 33.4649 23.3239 33.4649 16.2986V15.7386C33.4649 15.0259 33.0554 14.3132 32.4412 13.9568L27.016 10.8005C25.4806 9.93509 23.7405 9.47691 22.0003 9.47691V9.47662ZM22.0003 36L19.6971 34.6764C16.4727 32.7928 13.7601 30.1456 11.8661 26.8872C9.97244 23.68 9 20.0149 9 16.2471V15.6871C9 14.4144 9.66535 13.2435 10.7913 12.6326L16.2165 9.52724C17.9567 8.50908 19.9528 8 22 8C23.9961 8 25.9921 8.50908 27.7835 9.52724L33.2087 12.6326C34.2835 13.2435 35 14.4144 35 15.6871V16.2471C35 19.9634 34.0276 23.6291 32.1339 26.8872C30.2402 30.0944 27.5787 32.7925 24.3029 34.6764L22.0003 36Z" fill="white"/>
</g>
</g>
</svg>
