<svg width="44" height="44" viewBox="0 0 44 44" fill="none" xmlns="http://www.w3.org/2000/svg">
<g id="Group 12">
<rect id="Rectangle 34" width="44" height="44" rx="14" fill="#D05A5D"/>
<g id="Group 3">
<mask id="mask0_0_74610" style="mask-type:alpha" maskUnits="userSpaceOnUse" x="6" y="6" width="32" height="32">
<path id="Clip 2" fill-rule="evenodd" clip-rule="evenodd" d="M6 6H38V38H6V6Z" fill="white"/>
</mask>
<g mask="url(#mask0_0_74610)">
<path id="Fill 1" fill-rule="evenodd" clip-rule="evenodd" d="M27.1927 25.5122C26.8702 25.3613 26.5582 25.215 26.2744 25.0618C25.8997 24.8607 25.5941 24.5921 25.9684 23.5297C26.3266 22.5139 26.637 21.4911 26.5011 20.1423C26.2808 17.9806 24.2796 16.2217 22.0399 16.2217H21.9603C19.7205 16.2217 17.7197 17.98 17.5004 20.1415C17.362 21.4863 17.6737 22.5114 18.0322 23.5276C18.4044 24.5922 18.1002 24.8608 17.7258 25.0614C17.4429 25.2142 17.131 25.36 16.8088 25.5119C15.8191 25.9768 14.714 26.496 13.9619 27.37C12.9317 25.8327 12.3285 23.986 12.3285 22.0001C12.3285 16.6671 16.667 12.3287 21.9999 12.3287C27.3329 12.3287 31.6714 16.6671 31.6714 22.0001C31.6714 23.986 31.0686 25.8327 30.038 27.37C29.2863 26.4969 28.1821 25.9772 27.1928 25.5124L27.1927 25.5122ZM24.5913 24.707C24.5147 24.7784 24.4376 24.8446 24.3606 24.9086C23.5989 25.5436 22.8151 25.8604 21.9904 25.8474C20.9819 25.8264 20.1362 25.2994 19.6439 24.909C19.5525 24.8364 19.4729 24.7684 19.4072 24.7097C19.4816 24.251 19.422 23.7222 19.2091 23.1146C18.8275 22.033 18.6398 21.2597 18.7412 20.2695C18.8958 18.7523 20.3699 17.47 21.9598 17.47H22.0395C23.6303 17.47 25.1049 18.7523 25.2593 20.2686C25.3594 21.2622 25.1723 22.0352 24.7919 23.1146C24.5778 23.7208 24.5173 24.2497 24.5913 24.7071V24.707ZM21.9998 31.6712C19.115 31.6712 16.5293 30.3951 14.7557 28.3857C15.308 27.5997 16.3382 27.1117 17.3389 26.6413C17.6827 26.4798 18.0152 26.3232 18.3164 26.1613C18.4997 26.0633 18.652 25.948 18.7908 25.8257C19.4154 26.3375 20.5395 27.0613 21.9506 27.0949C21.9855 27.0953 22.0198 27.0962 22.0542 27.0962C23.1606 27.0962 24.2191 26.6666 25.2092 25.8262C25.3476 25.9481 25.4999 26.0625 25.6823 26.1609C25.9844 26.3242 26.3173 26.4808 26.6611 26.6423C27.6614 27.1128 28.6907 27.6003 29.243 28.3867C27.4698 30.3952 24.8841 31.6713 21.9997 31.6713L21.9998 31.6712ZM14.5173 28.8635C14.5396 28.7996 14.5637 28.7361 14.5914 28.6747C14.5642 28.7365 14.5391 28.7996 14.5173 28.8635ZM14.7472 30.1341C16.5325 31.7284 18.8363 32.7429 21.3759 32.8874V35.8191L19.4721 33.8252C19.234 33.5749 18.8385 33.5667 18.5904 33.8044C18.341 34.0425 18.3319 34.4376 18.5698 34.6866L21.5481 37.8064C21.6661 37.9299 21.8289 38 21.9995 38C22.1702 38 22.3333 37.9304 22.4509 37.8068L25.4296 34.687C25.6677 34.4376 25.6586 34.0429 25.4091 33.8048C25.1602 33.5671 24.765 33.5749 24.5273 33.8256L22.624 35.8186V32.8873C25.1636 32.7427 27.4674 31.7283 29.2522 30.1344L30.1361 29.2548C30.1609 29.2261 30.1883 29.2 30.2131 29.1722C30.385 28.9754 30.5478 28.7713 30.7058 28.5628C31.9707 26.8893 32.7653 24.846 32.8929 22.624H35.8186L33.8252 24.5268C33.5758 24.7649 33.5667 25.1602 33.8047 25.4091C33.9275 25.5374 34.0916 25.6023 34.256 25.6023C34.411 25.6023 34.5663 25.5449 34.6869 25.43L37.8067 22.4516C37.9299 22.3333 38 22.1705 38 21.9999C38 21.8294 37.9299 21.6666 37.8067 21.5486H37.8071L34.6873 18.5703C34.4384 18.3328 34.0432 18.3406 33.8056 18.5913C33.5675 18.8406 33.5766 19.2354 33.8261 19.4735L35.819 21.3759H32.8877C32.7432 18.8363 31.7312 16.53 30.1378 14.7446L29.2556 13.8629C27.4703 12.2691 25.1643 11.2571 22.6242 11.1126V8.18094L24.528 10.1748C24.7656 10.4242 25.1613 10.4324 25.4098 10.1956C25.6592 9.95754 25.6684 9.56244 25.4303 9.31341L22.452 6.19365C22.334 6.07008 22.1712 6 22.0006 6C21.83 6 21.6668 6.06964 21.5492 6.1932L18.5705 9.31297C18.3325 9.56244 18.3417 9.95709 18.591 10.1952C18.7116 10.3105 18.8666 10.368 19.0219 10.368C19.1865 10.368 19.3505 10.3036 19.4733 10.1748L21.3761 8.18139V11.1123C18.836 11.2568 16.5302 12.2687 14.7448 13.8621L13.8631 14.7447C12.2692 16.53 11.2573 18.8364 11.1128 21.376H8.1814L10.1748 19.4732C10.4242 19.2351 10.4333 18.8398 10.1952 18.5909C9.95712 18.3407 9.56157 18.3324 9.31344 18.57L6.19365 21.5482C6.07008 21.6667 6 21.8295 6 22.0001C6 22.1706 6.06964 22.3334 6.1932 22.4514L9.31299 25.4297C9.43355 25.545 9.58898 25.6025 9.74386 25.6025C9.90843 25.6025 10.0725 25.5381 10.1952 25.4092C10.4333 25.1598 10.4242 24.7651 10.1748 24.527L8.1814 22.6241H11.1071C11.2346 24.8456 12.0289 26.8882 13.2933 28.5616C13.4513 28.7705 13.614 28.9746 13.7859 29.1709C13.8107 29.1997 13.8381 29.2262 13.8634 29.255L14.7472 30.1341Z" fill="white"/>
</g>
</g>
</g>
</svg>
